# xmcd CD database file
#
# Track frame offsets:
#	150
#	19125
#	36292
#	57050
#	72750
#	89237
#	112475
#	136705
#	153055
#	170175
#
# Disc length: 2580 seconds
#
# Revision: 0
# Processed by: cddbd v1.5PL3 Copyright (c) Steve Scherf et al.
# Submitted via: CDex 1.51
#
DISCID=8a0a120a
DTITLE=WEST SIDE - WS
DYEAR=2001
DGENRE=JPop
TTITLE0=Right Here, Right Now (Album Version)
TTITLE1=DAILY
TTITLE2=18
TTITLE3=Answer For Your Love
TTITLE4=SENSATION
TTITLE5=I'm in love with you
TTITLE6=WEST LOVE SHINE
TTITLE7=SWAY
TTITLE8=I'll Be -それぞれのFieldへ-
TTITLE9=MISSING
EXTD=YEAR: 2001
EXTT0=
EXTT1=
EXTT2=
EXTT3=
EXTT4=
EXTT5=
EXTT6=
EXTT7=
EXTT8=
EXTT9=
PLAYORDER=
